# xmcd
#
# Track frame offsets:
#	150
#	4524
#	10090
#	18719
#	36408
#	48440
#	64990
#	81249
#	87961
#	102753
#	118574
#	129515
#	138944
#	151602
#	163089
#	174519
#	178070
#	186738
#	197940
#	209282
#	227144
#	243881
#	255915
#	273911
#	290480
#
# Disc length: 3915 seconds
#
# Revision: 0
# Processed by: cddbd v1.5.1PL0 Copyright (c) Steve Scherf et al.
# Submitted via: MusicManager 7.0.6.0 
#
DISCID=580f4919
DTITLE=DJ Warrior and Outlawz - Outlaw Warriorz Volume 1
DYEAR=2004
DGENRE=blues
TTITLE0=Caliuntouchabledjs.com - 2-Pac Live In The Studio
TTITLE1=Intro - Outlawz and DJ Warrior
TTITLE2=Outlaw Warriorz - Outlawz
TTITLE3=Come Back - Outlawz
TTITLE4=Revolution - 2-Pac and Talib Kweli
TTITLE5=Anyway - Outlawz (w/T.I.)
TTITLE6=Swear To God - Outlawz (w/Petey Pablo)
TTITLE7=Sound Off - Outlawz (w/Krayzie Bone)
TTITLE8=Ghetto Near You - Outlawz (w/Big Ghee)
TTITLE9=Peaple Don't Know - Outlawz (w/E-40 and The Game)
TTITLE10=Get Out Of Dodge - Outlawz
TTITLE11=CA To NY Runnin - 2-Pac and The Notorious B.I.G.
TTITLE12=Confession - 2-Pac and Bizzy Bone
TTITLE13=How Do U Want It 2004 - 2-Pac (w/Alicia Keys and Fatal Hussein)
TTITLE14=U and Me - Outlawz
TTITLE15=Left Eye Interlude
TTITLE16=Why Da Fuck U Mad - Outlawz
TTITLE17=Runnin and Gunnin - Outlawz (w/Krayzie Bone)
TTITLE18=Outlaw Radio - Outlawz
TTITLE19=Waist Your Time - Outlawz
TTITLE20=One Day At A Time - 2-Pac (w/Eminem and Outlawz)
TTITLE21=Look In My Eyes - Outlawz
TTITLE22=Still Ridin - Outlawz (w/8 Ball and Goodie Mob)
TTITLE23=Feelin This - Outlawz
TTITLE24=Makaveli - 1971 to 1996 R.I.P. *The Legacy Continues!!!
EXTD=
EXTT0=
EXTT1=
EXTT2=
EXTT3=
EXTT4=
EXTT5=
EXTT6=
EXTT7=
EXTT8=
EXTT9=
EXTT10=
EXTT11=
EXTT12=
EXTT13=
EXTT14=
EXTT15=
EXTT16=
EXTT17=
EXTT18=
EXTT19=
EXTT20=
EXTT21=
EXTT22=
EXTT23=
EXTT24=
PLAYORDER=
